<svg xmlns="http://www.w3.org/2000/svg" viewBox="0 0 20.681641 20.683598">
    <g transform="translate(4.486 -82.186) scale(.5125)">
        <path d="M11.422 160.363a20.178 20.178 0 0 0-20.175 20.18 20.178 20.178 0 0 0 20.175 20.178 20.178 20.178 0 0 0 20.18-20.178 20.178 20.178 0 0 0-20.18-20.18zm-6.997 12.023c1.66 0 3 1.34 3 3s-1.34 3-3 3-3.003-1.34-3.003-3 1.343-3 3.003-3zm13.998 0c1.66 0 3 1.34 3 3s-1.34 3-3 3-3-1.34-3-3 1.34-3 3-3zm-18.3 12h22.602c-1.65 4.66-6.083 8-11.303 8-5.22 0-9.65-3.34-11.3-8z"/>
    </g>
</svg>
